/* XPM */
static char *icon[] = {
/* columns rows colors chars-per-pixel */
"64 64 164 2 ",
"   c white",
".  c #CDAD00",
"X  c #F7E700",
"o  c #C4AAAA",
"O  c #9E6500",
"+  c #DFC500",
"@  c #E7D100",
"#  c #FFF100",
"$  c #700000",
"%  c #C4A000",
"&  c #7C2400",
"*  c #935200",
"=  c #BB9300",
"-  c #B28500",
";  c #883D00",
":  c #D6BA00",
">  c #EFDC00",
",  c #FFFFFC",
"<  c #FFF103",
"1  c #FFF101",
"2  c #FFFFFE",
"3  c #A87500",
"4  c #DFD1D1",
"5  c #FFF769",
"6  c #FFFEF0",
"7  c #FFF106",
"8  c #FFFDDB",
"9  c #FFFCC8",
"0  c #FFF20D",
"q  c #FFFBBD",
"w  c #FFF996",
"e  c #FFF215",
"r  c #FFF542",
"t  c #FFF65C",
"y  c #FFF31D",
"u  c #FFF20F",
"i  c #FFFFFA",
"p  c #FFFDE3",
"a  c #FFF32D",
"s  c #FFF87E",
"d  c #FFFCCC",
"f  c #FFFEEA",
"g  c #FFFFF9",
"h  c #FFF324",
"j  c #FFFDD2",
"k  c #FFFEF5",
"l  c #FFF102",
"z  c #FFF992",
"x  c #FFFFF7",
"c  c #FFF43F",
"v  c #FFF551",
"b  c #FFF54E",
"n  c #FFFEED",
"m  c #FFFDDD",
"M  c #FFF98C",
"N  c #FFFBB1",
"B  c #FFF20A",
"V  c #FFF430",
"C  c #FFFEE7",
"Z  c #FFFA9F",
"A  c #FFF437",
"S  c #C4A20F",
"D  c #9E6B6B",
"F  c #FFFCC3",
"G  c #FFF995",
"H  c #FFF107",
"J  c #FFF320",
"K  c #FFFAAB",
"L  c #FFFDD9",
"P  c #FFFEEF",
"I  c #FFFDE2",
"U  c #FFF654",
"Y  c #FFF32A",
"T  c #FFF54A",
"R  c #FFF212",
"E  c #FFF87B",
"W  c #FFF432",
"Q  c #FFF42E",
"!  c #FFF663",
"~  c #FFF65D",
"^  c #FFFAA5",
"/  c #FFF439",
"(  c #FFFDD5",
")  c #FFF768",
"_  c #FFFAA7",
"`  c #FFFEE6",
"'  c #FFF881",
"]  c #FFFFF8",
"[  c #FFFAA9",
"{  c #FFF773",
"}  c #FFF653",
"|  c #FFF20B",
" . c #FFF541",
".. c #FFFBB6",
"X. c #FFFBBC",
"o. c #FFF434",
"O. c #FFF31C",
"+. c #FFF21B",
"@. c #FFF217",
"#. c #FFFAA1",
"$. c #FFF879",
"%. c #FFFEF1",
"&. c #FFF105",
"*. c #FFFAA8",
"=. c #FFFAA2",
"-. c #FFF887",
";. c #FFF322",
":. c #FFFAA0",
">. c #FFF888",
",. c #C4AAA8",
"<. c #FFFCC1",
"1. c #FFF877",
"2. c #A8782E",
"3. c #FFF323",
"4. c #FFF104",
"5. c #E7DDDD",
"6. c #BB9C9B",
"7. c #FFF776",
"8. c #FFFAA4",
"9. c #FFFBB3",
"0. c #BB9C9C",
"q. c #CDB8B8",
"w. c #883E01",
"e. c #F7F4F4",
"r. c #FFF545",
"t. c #FFF218",
"y. c #FFF660",
"u. c #FFFCCF",
"i. c #7C2507",
"p. c #FFFFFB",
"a. c #9E6B67",
"s. c #9E671A",
"d. c #DFCB6E",
"f. c #FFFBBB",
"g. c #FFF65B",
"h. c #7C2403",
"j. c #C4A998",
"k. c #FFFDD7",
"l. c #FFF770",
"z. c #DFC501",
"x. c #C4A211",
"c. c #FFF213",
"v. c #FFF87C",
"b. c #9E6A52",
"n. c #C4A98F",
"m. c #FFFEEB",
"M. c #C4A991",
"N. c #B28B74",
"B. c #B28950",
"V. c #C4A104",
"C. c #C4A77D",
"Z. c #884242",
"A. c #A87502",
"S. c #935858",
"D. c #FFF549",
"F. c #FFF328",
"G. c #C4A9A3",
"H. c #C4A331",
"J. c #9E6607",
"K. c #FFFDE0",
"L. c #884139",
"P. c #935308",
"I. c #FFFEEC",
"U. c #FFFEF4",
/* pixels */
"                                                                                                                                ",
"                                                          , t Z                                                                 ",
"                                                          5 # 1 >.                                                              ",
"                                                        ' # # # # l.2                                                           ",
"                                                      w # # # # # # t i                                                         ",
"                                                    [ < # # # # # # # D.U.                                                      ",
"                                        4 o 4     q 7 # # # # % % : # # A I.                                                    ",
"                                        o $ o   9 u # # # # # = $ $ @ # # F.K.                                                  ",
"                                        o $ o 8 e # # # # # # X * $ * + @ # y N.$ $                                             ",
"                                        o $ L.J.- # # # # # # # @ & $ $ O # > $ $ 0.                                            ",
"                                        o $ P.$ $ % # # # # # # # X + + @ # . $ w.9.                                            ",
"                                        G.$ % 3 $ & : + + @ # # # # # # # # - $ - 4.:.                                          ",
"                                      , H.$ % X * $ $ $ $ O # # # # # # # # * $ % # 1 M                                         ",
"                                    2 g.% $ % # # + + + + @ # # # # # # # X $ $ @ # # # { 2                                     ",
"                                    1.# % $ % # # # # # # # # # # # # # # : $ $ # # # # # ~ i                                   ",
"                                  -.# # % $ % # # # # # # # # . % % % % = & $ - # # # # # # T k                                 ",
"                                #.1 # # % $ % # # # # # # # # O $ $ $ $ $ $ 3 X # # # # # # # / n                               ",
"                              N < # # # # # # # # # # # # # # # # # # # # # # # # # # # # # # # Y I                             ",
"                            F B # # # # # # # # # # # # # # # # # # # # # # # # # # # # # # # # # y (                           ",
"                          j u # # # # # # # # # # # # # # # # # # # # # # # # # # # # # # # # # # # R 9                         ",
"                        m O.# # # # # # # # # # # # # # # # # # # # # # # # # # # # # # # # # # # # # | ..                      ",
"                      f h # # # # # # # # # # # # # # # # # # # # # # # # # # # # # # # # # # # # # # # &.=.                    ",
"                    6 o.# # # # # # # # # # # # # # # # # # # # # # # # # # # # # # # # # # # # # # # # # 1 M                   ",
"                  g r # # # # # # # # # # # # # # # # # # # # # # # # # # # # # # # # # # # # # # # # # # # # 7.2               ",
"    4 o 4       , } # # # % % : # # # # # # # # # > % % % % % % % % % + # # + % % % % % % % % % # # # # # # # # y.p.            ",
"    o $ o       5 # # # # = $ $ @ # # # # # # # # + $ $ $ $ $ $ $ $ $ % # # % $ $ $ $ $ $ $ $ $ # # = O O O O O O s.a.D q.      ",
"    o $ o     v.# # # # # X * $ * + @ # # - $ $ # # # # # # # # . $ $ . # # # # # # # # # # # # # # = O O O O O O O h.$ o       ",
"    o $ Z.D B.# # # # # # # @ & $ $ O # > $ $ = # # . % % : # # ; $ O # # # O O O O O O O O O O . # # # # # # # # # O $ j.      ",
"    o $ S.$ $ % # # # # # # # X + + @ # . $ ; # # # O $ $ $ . % $ $ @ # # # O O O O O O O O $ $ % # # # # # # # # # O $ x.k.    ",
"    o $ C.A.$ & : + + @ # # # # # # # # - $ - # # # # # % $ $ $ $ = # # # # # # # # # # # @ $ $ . # # # # # # # # # O $ % c.9   ",
"    o $ V.X * $ $ $ $ O # # # # # # # # * $ % # # # # # # . $ $ $ > # # # # # # # # # # # = $ & X # # # # # # # # # O $ % # r   ",
"    M.$ % # # + + + + @ # # # # # # # X $ $ @ # # # # # # . $ $ $ * X # # # # # # # # # # ; $ = # # # # # # # # # # O $ % a m.  ",
"  p S $ % # # # # # # # # # # # # # # : $ $ # # # # # # X & $ 3 ; $ ; % + # # # # # # # : $ $ > # # # # # # # # # # O $ S p     ",
"n a % $ % # # # # # # # # . % % % % = & $ - # # # + % % * $ & X X O $ $ % # # % % % % % * $ O # # # . % % % % % % = $ $ n.      ",
"r.# % $ % # # # # # # # # O $ $ $ $ $ $ 3 X # # # % $ $ $ ; @ # # # # # # # # $ $ $ $ $ $ ; @ # # # O $ $ $ $ $ $ $ $ b.e.      ",
"u.t.# # # # # # # # # # # # # # # # # # # # # # # # # # # # # # # # # # # # # # # # # # # # # # # # # # # # # # # 7 f.          ",
"  m 3.# # # # # # # # # # # # # # # # # # # # # # # # # # # # # # # # # # # # # # # # # # # # # # # # # # # # # 1 8.            ",
"    C V # # # # # # # # # # # # # # # # # # # # # # # # # # # # # # # # # # # # # # # # # # # # # # # # # # # # w               ",
"      %. .# # # # # # # # # # # # # # # # # # # # # # # # # # # # # # # # # # # # # # # # # # # # # # # # # # $.                ",
"        ] U # # # # # # # # # # # # # # # # # # # # # # # # # # # # # # # # # # # # # # # # # # # # # # # # 5                   ",
"          , ) # # # # # # # # # # # # # # # # # # # # # # # # # # # # # # # # # # # # # # # # # # # # # # v ,                   ",
"              s # # # # # # # > % % % % % % % % + # % % % % % % % % > # # # # # # # # # # # # # # # # # r g                     ",
"                G < # # # # # + $ $ $ $ $ $ $ $ % # $ $ $ $ $ $ $ $ + # O O O O O O O O O @ # # # # # W 6                       ",
"                  K H # # # # # # # # # # O $ $ % # # # # # # # # # # # O O O O O O & $ $ + # # # # h f                         ",
"                    q 0 # # # # O O O @ + $ $ ; X . O O O O O O O O O # # # # # # # O $ $ + # # # +.8                           ",
"                      d @.# # # $ $ $ & * $ $ . # . O O O O O * $ $ $ # # # # # # # O $ $ + # # u j                             ",
"                        8 ;.# # X - $ $ $ $ O # # # # # # # # % $ $ * # # # # # # # O $ $ + # B <.                              ",
"                          C V # # # - $ $ $ . # # # # # # # # * $ $ . # # # # # # # O $ $ + < N                                 ",
"                            6 c # # . $ $ $ & + # # # # # # > $ $ $ X # # # # # # # O $ $ z.Z                                   ",
"                              x v # ; $ & $ $ $ O # # # # # % $ $ - # # # # # # # # O $ $ d.                                    ",
"                              4 ,.2.$ $ % . & $ $ # + % % = & $ $ : # # % % % % % = $ $ $ 5.                                    ",
"                              o $ $ $ 3 X # # # # # % $ $ $ $ & = # # # $ $ $ $ $ $ $ i.6.                                      ",
"                                      z l # # # # # # # # # # # # # # # # # # # # # b i                                         ",
"                                        *.7 # # # # # # # # # # # # # # # # # # # A k                                           ",
"                                          X.0 # # # # # # # # # # # # # # # # # a 6                                             ",
"                                            d e # # # # # # # # # # # # # # # y p                                               ",
"                                              L J # # # # # # # # # # # # # e 8                                                 ",
"                                                ` Q # # # # # # # # # # # 0 9                                                   ",
"                                                  P c # # # # # # # # # 7 q                                                     ",
"                                                    x b # # # # # # # < _                                                       ",
"                                                      , ! # # # # # # w                                                         ",
"                                                        2 E # # # # s                                                           ",
"                                                            z l # 5                                                             ",
"                                                              ^ t ,                                                             "
};
